<?xml version="1.0" encoding="UTF-8"?>
<mxfile host="app.diagrams.net" modified="2025-05-05T12:00:00.000Z" agent="Mozilla/5.0" version="21.0.0" etag="abcdef" type="device">
  <diagram id="test-diagram" name="Test Diagram">
    <mxGraphModel dx="1422" dy="798" grid="1" gridSize="10" guides="1" tooltips="1" connect="1" arrows="1" fold="1" page="1" pageScale="1" pageWidth="827" pageHeight="1169" math="0" shadow="0">
      <root>
        <mxCell id="0" />
        <mxCell id="1" parent="0" />
        <mxCell id="2" value="Test Diagram" style="rounded=0;whiteSpace=wrap;html=1;" parent="1" vertex="1">
          <mxGeometry x="320" y="240" width="120" height="60" />
        </mxCell>
      </root>
    </mxGraphModel>
  </diagram>
</mxfile>
